#!OML:ASF H:\Not Pregnant\Project 1\Capture day 1\Session 1\non-pregnant.ASF
:FULLY-SPECIFIED
:DEGREES
628
root 5.75495 15.5538 26.2698 7.73263 -3.88781 -7.43873
lowerback -0.207509 2.33308 8.37907
upperback -5.61016 3.38703 0.382204
thorax -5.30308 1.30158 -4.41895
lowerneck 16.6364 -11.2134 -30.2526
upperneck -6.8877 -20.5897 42.1939
head 4.04972 -12.3983 20.4201
rclavicle -6.4605e-015 2.38542e-015
rhumerus -37.61 -13.722 -81.5285
rradius 24.989
rwrist 28.5005
rhand -10.3008 -1.2448
rfingers 7.12502
rthumb 15.694 -30.6284
lclavicle -6.4605e-015 2.38542e-015
lhumerus -45.2813 0.715108 84.1332
lradius 32.4578
lwrist 30.6181
lhand -13.9113 -10.6344
lfingers 7.12502
lthumb 12.2146 18.9889
rfemur -21.2529 6.95036 32.7611
rtibia 35.0356
rfoot -18.0048 7.81795
rtoes -10.2097
lfemur -35.5827 8.68292 -8.6034
ltibia 81.4268
lfoot -16.1794 -21.064
ltoes -41.2206
629
root 5.7578 15.5451 26.3448 7.66806 -3.9339 -7.52091
lowerback -0.0821422 2.3717 8.48081
upperback -5.55613 3.45003 0.346648
thorax -5.30231 1.32872 -4.5193
lowerneck 16.7212 -11.2342 -30.2356
upperneck -6.924 -20.641 42.2975
head 4.06505 -12.4432 20.4747
rclavicle -4.01297e-014 -3.1408e-014
rhumerus -37.3664 -13.4513 -81.8021
rradius 24.8821
rwrist 28.6827
rhand -10.2238 -1.1589
rfingers 7.12502
rthumb 15.7681 -30.5366
lclavicle -4.01297e-014 -3.1408e-014
lhumerus -45.0121 0.51862 84.1942
lradius 33.1072
lwrist 31.5079
lhand -14.1771 -10.8357
lfingers 7.12502
lthumb 11.9583 18.8027
rfemur -20.844 7.00031 32.8622
rtibia 35.0441
rfoot -18.3003 7.69325
rtoes -10.186
lfemur -36.4124 8.78442 -8.58803
ltibia 80.6246
lfoot -17.3428 -18.5498
ltoes -42.9017
630
root 5.76127 15.537 26.4195 7.61734 -3.98 -7.60454
lowerback 0.0300637 2.41029 8.58555
upperback -5.50715 3.51228 0.313284
thorax -5.29923 1.35542 -4.61861
lowerneck 16.7905 -11.2588 -30.2243
upperneck -6.93767 -20.7004 42.3876
head 4.09089 -12.4892 20.5185
rclavicle -3.37934e-014 -9.54166e-015
rhumerus -37.1272 -13.1931 -82.0582
rradius 24.7762
rwrist 28.8803
rhand -10.098 -1.08533
rfingers 7.12502
rthumb 15.8893 -30.4534
lclavicle -3.37934e-014 -9.54166e-015
lhumerus -44.751 0.348991 84.2514
lradius 33.7627
lwrist 32.3658
lhand -14.4525 -11.0675
lfingers 7.12502
lthumb 11.6928 18.5862
rfemur -20.4476 7.00584 32.9599
rtibia 35.0379
rfoot -18.5952 7.62364
rtoes -10.1486
lfemur -37.2094 8.85132 -8.59517
ltibia 79.6722
lfoot -17.5485 -16.6557
ltoes -43.0587
631
root 5.76491 15.5297 26.4942 7.58463 -4.02945 -7.68229
lowerback 0.13581 2.4515 8.6803
upperback -5.47145 3.57799 0.279323
thorax -5.30625 1.38346 -4.71328
lowerneck 16.8566 -11.2862 -30.2122
upperneck -6.93875 -20.7652 42.4644
head 4.12023 -12.5361 20.5523
rclavicle 6.38596e-015 -7.95139e-015
rhumerus -36.8992 -12.9103 -82.3156
rradius 24.6748
rwrist 29.0574
rhand -9.95754 -1.01247
rfingers 7.12502
rthumb 16.0245 -30.3698
lclavicle 6.38596e-015 -7.95139e-015
lhumerus -44.5087 0.199542 84.3045
lradius 34.4213
lwrist 33.186
lhand -14.7461 -11.3325
lfingers 7.12502
lthumb 11.4096 18.3371
rfemur -20.0669 6.98012 33.0463
rtibia 35.0162
rfoot -18.8899 7.59862
rtoes -10.1225
lfemur -37.9674 8.88328 -8.62963
ltibia 78.5686
lfoot -17.5493 -14.8367
ltoes -43.0141
632
root 5.76854 15.5233 26.5689 7.56991 -4.08071 -7.7453
lowerback 0.239703 2.4939 8.7496
upperback -5.45518 3.64561 0.246781
thorax -5.33364 1.41215 -4.79298
lowerneck 16.9296 -11.3127 -30.2061
upperneck -6.92572 -20.8343 42.5249
head 4.15136 -12.5841 20.5775
rclavicle -1.76918e-014 3.18055e-015
rhumerus -36.6963 -12.6199 -82.5555
rradius 24.5725
rwrist 29.2365
rhand -9.80737 -0.934021
rfingers 7.12502
rthumb 16.1691 -30.2796
lclavicle -1.76918e-014 3.18055e-015
lhumerus -44.2949 0.0715231 84.3593
lradius 35.072
lwrist 33.9471
lhand -15.0409 -11.6098
lfingers 7.12502
lthumb 11.1253 18.0753
rfemur -19.7039 6.93349 33.1123
rtibia 34.9782
rfoot -19.1747 7.60828
rtoes -10.0925
lfemur -38.6861 8.878 -8.69829
ltibia 77.3158
lfoot -17.3885 -13.0671
ltoes -42.8282
633
root 5.77225 15.5182 26.6442 7.57231 -4.13515 -7.79069
lowerback 0.33568 2.5376 8.79313
upperback -5.45583 3.71431 0.213346
thorax -5.3753 1.44136 -4.85958
lowerneck 17.0137 -11.3374 -30.2017
upperneck -6.90729 -20.9039 42.5715
head 4.1794 -12.632 20.5961
rclavicle -1.73937e-015 -1.07344e-014
rhumerus -36.5171 -12.2972 -82.7938
rradius 24.4744
rwrist 29.3947
rhand -9.672 -0.848405
rfingers 7.12502
rthumb 16.2995 -30.1834
lclavicle -1.73937e-015 -1.07344e-014
lhumerus -44.1075 -0.0374327 84.4123
lradius 35.712
lwrist 34.6436
lhand -15.3325 -11.8945
lfingers 7.12502
lthumb 10.8441 17.8055
rfemur -19.3525 6.86724 33.1539
rtibia 34.9237
rfoot -19.4522 7.64821
rtoes -10.0563
lfemur -39.3507 8.83339 -8.80133
ltibia 75.9144
lfoot -17.1048 -11.326
ltoes -42.5676
634
root 5.77593 15.5142 26.7204 7.59312 -4.19102 -7.82261
lowerback 0.417892 2.58163 8.81249
upperback -5.47057 3.78212 0.18204
thorax -5.42535 1.47046 -4.91031
lowerneck 17.0996 -11.3621 -30.199
upperneck -6.88324 -20.9744 42.6033
head 4.20613 -12.679 20.6061
rclavicle -3.1085e-014 -9.93923e-015
rhumerus -36.3597 -11.9388 -83.031
rradius 24.388
rwrist 29.5269
rhand -9.55802 -0.757854
rfingers 7.12502
rthumb 16.4092 -30.0838
lclavicle -3.1085e-014 -9.93923e-015
lhumerus -43.9361 -0.139149 84.4716
lradius 36.3232
lwrist 35.2799
lhand -15.6202 -12.187
lfingers 7.12502
lthumb 10.5665 17.5274
rfemur -19.0126 6.78914 33.1767
rtibia 34.8518
rfoot -19.719 7.70925
rtoes -10.0064
lfemur -39.9621 8.7559 -8.92962
ltibia 74.3713
lfoot -16.7328 -9.60517
ltoes -42.3023
635
root 5.7797 15.5109 26.7973 7.62885 -4.24822 -7.84409
lowerback 0.483149 2.62672 8.81397
upperback -5.49482 3.84955 0.152581
thorax -5.47678 1.4999 -4.94866
lowerneck 17.1883 -11.3851 -30.2014
upperneck -6.85761 -21.0438 42.6272
head 4.23144 -12.725 20.613
rclavicle 1.3741e-014 1.35174e-014
rhumerus -36.2175 -11.5694 -83.2586
rradius 24.3066
rwrist 29.6446
rhand -9.46659 -0.660969
rfingers 7.12502
rthumb 16.4973 -29.9796
lclavicle 1.3741e-014 1.35174e-014
lhumerus -43.7757 -0.226195 84.5335
lradius 36.9056
lwrist 35.8377
lhand -15.9088 -12.4673
lfingers 7.12502
lthumb 10.2881 17.2611
rfemur -18.6785 6.70663 33.1848
rtibia 34.7604
rfoot -19.9691 7.78258
rtoes -9.9423
lfemur -40.5164 8.65389 -9.07504
ltibia 72.6943
lfoot -16.2845 -7.91554
ltoes -42.0487
636
root 5.78368 15.5082 26.8753 7.67964 -4.31074 -7.87038
lowerback 0.531322 2.6741 8.81152
upperback -5.52869 3.9189 0.129958
thorax -5.52904 1.53031 -4.97715
lowerneck 17.2807 -11.4042 -30.2108
upperneck -6.82849 -21.1103 42.6433
head 4.25507 -12.7689 20.6182
rclavicle 8.39865e-015 -2.62396e-014
rhumerus -36.1013 -11.1712 -83.4837
rradius 24.2532
rwrist 29.7214
rhand -9.39497 -0.569539
rfingers 7.12502
rthumb 16.5662 -29.8824
lclavicle 8.39865e-015 -2.62396e-014
lhumerus -43.6274 -0.312782 84.6071
lradius 37.4562
lwrist 36.3334
lhand -16.1991 -12.7479
lfingers 7.12502
lthumb 10.0081 16.9941
rfemur -18.3446 6.62989 33.1941
rtibia 34.645
rfoot -20.202 7.86221
rtoes -9.87849
lfemur -41.0136 8.53988 -9.21484
ltibia 70.8914
lfoot -15.7607 -6.30008
ltoes -41.7573
637
root 5.78773 15.5062 26.9542 7.74272 -4.38101 -7.90299
lowerback 0.569746 2.72557 8.80705
upperback -5.57238 3.99337 0.111685
thorax -5.58583 1.56296 -4.99997
lowerneck 17.3783 -11.4221 -30.2186
upperneck -6.8 -21.1748 42.6513
head 4.27479 -12.8116 20.6194
rclavicle -2.88238e-015 5.1684e-015
rhumerus -36.0062 -10.7683 -83.7
rradius 24.2148
rwrist 29.7699
rhand -9.34082 -0.479186
rfingers 7.12502
rthumb 16.6183 -29.7877
lclavicle -2.88238e-015 5.1684e-015
lhumerus -43.4963 -0.401329 84.6889
lradius 37.9805
lwrist 36.774
lhand -16.5053 -13.0307
lfingers 7.12502
lthumb 9.71268 16.7253
rfemur -18.005 6.5719 33.2074
rtibia 34.4991
rfoot -20.4122 7.93864
rtoes -9.81828
lfemur -41.4496 8.4176 -9.34048
ltibia 68.9665
lfoot -15.1866 -4.79204
ltoes -41.4373
638
root 5.79225 15.5052 27.0337 7.81641 -4.45627 -7.94568
lowerback 0.580431 2.77819 8.81043
upperback -5.61031 4.06666 0.0996454
thorax -5.62072 1.59605 -5.01878
lowerneck 17.4546 -11.4438 -30.2281
upperneck -6.76741 -21.2404 42.6534
head 4.29907 -12.852 20.6138
rclavicle -5.60076e-014 6.75868e-015
rhumerus -35.9144 -10.3865 -83.9005
rradius 24.211
rwrist 29.8013
rhand -9.2628 -0.409245
rfingers 7.12502
rthumb 16.6935 -29.7115
lclavicle -5.60076e-014 6.75868e-015
lhumerus -43.3567 -0.484365 84.7805
lradius 38.4713
lwrist 37.161
lhand -16.8189 -13.3058
lfingers 7.12502
lthumb 9.41009 16.4641
rfemur -17.6552 6.5283 33.2273
rtibia 34.3167
rfoot -20.5993 8.01601
rtoes -9.76964
lfemur -41.8221 8.27985 -9.44227
ltibia 66.9236
lfoot -14.5706 -3.42549
ltoes -41.0421
639
root 5.79716 15.5058 27.1144 7.90034 -4.53913 -7.99388
lowerback 0.577025 2.83255 8.81644
upperback -5.65032 4.14119 0.0920961
thorax -5.64974 1.62998 -5.03359
lowerneck 17.5182 -11.4676 -30.2365
upperneck -6.73727 -21.3042 42.6495
head 4.3229 -12.8897 20.6028
rclavicle -5.29016e-014 -1.94809e-014
rhumerus -35.8323 -9.98853 -84.0998
rradius 24.2314
rwrist 29.7816
rhand -9.19892 -0.341553
rfingers 7.12502
rthumb 16.755 -29.6386
lclavicle -5.29016e-014 -1.94809e-014
lhumerus -43.2306 -0.56538 84.8815
lradius 38.9387
lwrist 37.5071
lhand -17.1409 -13.5856
lfingers 7.12502
lthumb 9.09941 16.1981
rfemur -17.2902 6.50101 33.2482
rtibia 34.0943
rfoot -20.7666 8.09427
rtoes -9.73866
lfemur -42.1244 8.12483 -9.51964
ltibia 64.7674
lfoot -13.9546 -2.22184
ltoes -40.6268
640
root 5.80238 15.5077 27.1959 7.99325 -4.62959 -8.03804
lowerback 0.556549 2.88859 8.81525
upperback -5.68747 4.21575 0.0857753
thorax -5.66629 1.66502 -5.04193
lowerneck 17.5717 -11.4924 -30.2435
upperneck -6.72053 -21.3629 42.6473
head 4.34305 -12.9242 20.5919
rclavicle -1.53313e-014 8.34896e-015
rhumerus -35.7478 -9.61101 -84.2847
rradius 24.2617
rwrist 29.7474
rhand -9.14859 -0.27388
rfingers 7.12502
rthumb 16.8034 -29.5668
lclavicle -1.53313e-014 8.34896e-015
lhumerus -43.1036 -0.645028 84.9892
lradius 39.3685
lwrist 37.801
lhand -17.4399 -13.8584
lfingers 7.12502
lthumb 8.81088 15.9377
rfemur -16.9128 6.49536 33.2605
rtibia 33.832
rfoot -20.9075 8.16742
rtoes -9.72172
lfemur -42.361 7.95014 -9.57819
ltibia 62.5089
lfoot -13.3583 -1.21739
ltoes -40.1284
641
root 5.80835 15.5109 27.2776 8.09425 -4.7281 -8.08003
lowerback 0.52013 2.94357 8.81549
upperback -5.71856 4.2869 0.0798559
thorax -5.66763 1.69926 -5.04925
lowerneck 17.5968 -11.5225 -30.2484
upperneck -6.70231 -21.4217 42.6407
head 4.3677 -12.9554 20.5736
rclavicle 9.39258e-015 4.37326e-015
rhumerus -35.6596 -9.25901 -84.4579
rradius 24.3126
rwrist 29.7026
rhand -9.09584 -0.224661
rfingers 7.12502
rthumb 16.8542 -29.5132
lclavicle 9.39258e-015 4.37326e-015
lhumerus -42.9973 -0.720989 85.0999
lradius 39.8121
lwrist 38.0384
lhand -17.7008 -14.0946
lfingers 7.12502
lthumb 8.55908 15.712
rfemur -16.5245 6.50273 33.2642
rtibia 33.5318
rfoot -21.026 8.24321
rtoes -9.72662
lfemur -42.5342 7.75079 -9.61328
ltibia 60.1629
lfoot -12.8083 -0.417063
ltoes -39.6374
